<svg width="600" height="504" viewBox="0 0 600 504" fill="none" xmlns="http://www.w3.org/2000/svg">
<path fill-rule="evenodd" clip-rule="evenodd" d="M121.913 39.5503C140.776 22.2876 180.466 6.75885 188.725 5.84372C192.317 5.44662 199.924 4.56804 207.633 3.67764C215.428 2.77734 223.327 1.86496 227.286 1.42605C251.5 -1.25282 280.089 -0.154237 303.125 8.12434C309.149 10.2896 315.136 12.1774 321.051 14.0424C341.903 20.6173 361.857 26.9093 379.393 44.0785C401.504 65.7305 408.277 90.6792 416.016 119.187C417.752 125.583 454.785 375.384 569.655 360C640.655 449.974 569.655 482.5 503.655 500.5C478.802 517.421 320.575 453.999 295.208 451.484C283.11 450.284 270.963 449.08 258.775 449.974C216.359 453.088 162.205 449.878 120.49 438.16C86.7602 428.684 44.888 383.946 16.2738 334.88C6.33583 317.837 3.40957 286.987 1.49333 266.785C1.42244 266.038 1.35293 265.305 1.2845 264.588C-6.83272 179.603 66.7663 90.0152 121.913 39.5503Z" fill="#E5D7CE"/>
</svg>
