<svg width="143" height="299" viewBox="0 0 143 299" fill="none" xmlns="http://www.w3.org/2000/svg">
<path d="M9.49171 14.3383C9.8658 13.3835 12.2831 8.64282 13.2036 6.84966C13.4386 6.21877 13.7394 5.60959 14.1057 5.03216C18.5855 -2.02456 24.6166 2.01004 25.0345 2.29426C26.8754 3.5465 29.0163 5.79218 29.0546 10.3068C29.0937 14.8065 25.9729 18.1386 24.4356 22.064C22.9986 25.7313 20.8439 29.4176 19.9289 33.3691C20.1602 34.2376 20.2842 35.1596 20.2842 36.1144C20.2842 41.3092 16.6128 45.5269 12.091 45.5269C9.37331 45.5269 7.75256 44.4895 6.6547 43.5654C4.88744 42.0782 2.63045 39.335 3.31091 33.0807C4.025 26.5199 7.16285 20.2846 9.49171 14.3383Z" fill="#F0BDD6"/>
<path fill-rule="evenodd" clip-rule="evenodd" d="M1.86942 52.3385C-0.0733602 57.2427 -0.643705 67.8052 0.836532 76.925C1.95512 83.8187 4.31852 89.7576 6.94682 92.7775C10.1446 96.4512 15.3367 96.4512 18.5344 92.7775C21.7317 89.1039 21.7317 83.1391 18.5344 79.466C17.5844 78.3752 17.3499 75.9649 16.9455 73.4747C16.1434 68.5319 15.7315 62.7936 16.7842 60.1357C18.6574 55.4072 16.8363 49.8214 12.7204 47.6699C8.60444 45.5179 3.74218 47.6101 1.86942 52.3385Z" fill="#F0BDD6"/>
<path fill-rule="evenodd" clip-rule="evenodd" d="M30.6697 113.62C30.4509 109.064 27.3665 105.242 23.2929 104.781C20.6798 104.485 18.8665 105.416 17.536 106.479C15.7531 107.903 14.5064 109.943 14.0531 112.654C13.7251 114.615 14.511 118.496 14.9547 119.685C16.5349 123.921 19.042 127.299 22.0007 130.196C24.8354 132.971 28.2183 135.128 30.66 137.934C33.8578 141.607 39.0499 141.607 42.2472 137.934C45.4449 134.26 45.4449 128.295 42.2472 124.622C40.2353 122.31 37.7539 120.285 35.2652 118.205C33.6108 116.822 31.8169 115.535 30.6697 113.62Z" fill="#F0BDD6"/>
<path fill-rule="evenodd" clip-rule="evenodd" d="M65.5714 127.677C63.0716 127.529 57.7625 127.164 56.5674 126.689C52.293 124.993 47.6243 127.602 46.1477 132.513C44.6707 137.423 46.942 142.787 51.2164 144.483C54.3667 145.733 65.4977 148.029 71.8839 145.678C77.6409 143.558 81.0303 139.021 81.0303 132.025C81.0303 126.829 77.3589 122.612 72.8367 122.612C69.6799 122.612 66.9374 124.667 65.5714 127.677Z" fill="#F0BDD6"/>
<path fill-rule="evenodd" clip-rule="evenodd" d="M80.6957 108.671C78.9082 109.972 77.5575 112.063 77.0742 114.624C76.1168 119.702 78.9271 124.717 83.3466 125.817C86.5499 126.615 90.6432 125.665 93.7806 120.571C97.1584 115.085 100.196 99.6535 100.196 95.8248C100.196 90.63 96.525 86.4122 92.0027 86.4122C87.4809 86.4122 83.8096 90.63 83.8096 95.8248C83.8096 97.5756 81.5245 105.764 80.6957 108.671Z" fill="#F0BDD6"/>
<path fill-rule="evenodd" clip-rule="evenodd" d="M78.0577 83.7336C82.6394 87.3834 86.5264 84.9012 87.3653 84.3237C91.2439 81.6525 92.5049 75.8666 90.1797 71.4107C89.3998 69.9161 88.3143 68.7596 87.0691 67.9853C85.4709 66.6362 78.3415 60.8037 73.3373 59.7065C68.6585 58.6813 64.3126 59.8394 60.8712 63.7925C57.6739 67.4661 57.6739 73.4309 60.8712 77.104C65.1459 82.0149 72.3508 79.1877 78.0577 83.7336Z" fill="#F0BDD6"/>
<path fill-rule="evenodd" clip-rule="evenodd" d="M42.2984 97.1711C42.6342 96.7096 44.0099 94.855 45.0124 93.9399C45.744 93.272 46.7644 92.558 47.5389 92.051C48.6169 92.251 49.7475 92.2029 50.8716 91.8694C55.2501 90.5712 57.8872 85.433 56.7571 80.4029C55.6818 75.6178 52.1694 71.2964 45.3482 72.9064C41.9551 73.7077 35.8573 77.5105 31.6538 82.476C28.0078 86.7832 25.9494 91.9277 25.9494 96.2825C25.9494 101.478 29.6207 105.695 34.1425 105.695C38.4036 105.695 41.9095 101.95 42.2984 97.1711Z" fill="#F0BDD6"/>
<path fill-rule="evenodd" clip-rule="evenodd" d="M27.4509 167.901C27.7144 164.656 28.4483 155.413 28.6943 150.556C28.8026 150.303 28.8998 150.041 28.9878 149.772C30.5749 144.907 28.4262 139.478 24.1918 137.654C21.458 136.477 19.0361 136.93 16.8966 138.374C15.8531 139.078 14.8294 140.108 14.0089 141.557C13.1082 143.149 12.3941 146.017 12.3941 148.16C12.3941 152.247 10.4702 166.229 11.1263 171.653C12.0827 179.562 16.8731 181.83 20.263 181.83C24.7848 181.83 28.4561 177.612 28.4561 172.417C28.4561 170.781 28.0917 169.241 27.4509 167.901Z" fill="#F0BDD6"/>
<path fill-rule="evenodd" clip-rule="evenodd" d="M47.8667 211.443C47.2913 210.604 45.7102 208.253 44.7459 206.401C42.5944 202.265 40.3416 195.951 39.7482 194.243C39.6469 191.982 38.8402 189.757 37.33 188.04C34.1152 184.387 28.9231 184.42 25.7429 188.113C24.7044 189.319 23.4956 191.257 23.3232 194.381C23.2643 195.445 23.438 197.844 24.3907 200.962C26.0893 206.521 30.5756 217.067 34.8215 222.914C38.4016 227.843 42.5618 229.883 45.5499 229.883C50.0717 229.883 53.743 225.666 53.743 220.47C53.743 216.2 51.2621 212.589 47.8667 211.443Z" fill="#F0BDD6"/>
<path fill-rule="evenodd" clip-rule="evenodd" d="M68.6103 239.416C68.1681 238.7 67.629 238.046 66.9979 237.477C63.4403 234.271 58.2855 234.986 55.4946 239.073C52.9999 242.726 53.2722 245.889 53.9305 248.338C54.5396 250.604 56.1161 253.111 58.7776 254.64C63.0745 257.108 69.1139 263.092 72.5655 267.058C75.7632 270.731 80.9553 270.731 84.1526 267.058C87.3503 263.384 87.3503 257.42 84.1526 253.746C80.3048 249.325 73.8849 243.114 68.6103 239.416Z" fill="#F0BDD6"/>
<path fill-rule="evenodd" clip-rule="evenodd" d="M132.714 298.823C133.104 298.89 133.503 298.924 133.908 298.924C141.66 298.924 142.124 290.235 142.129 289.606C142.149 287.393 141.693 284.376 138.789 281.923C138.618 281.779 137.402 280.49 134.796 280.143C134.073 280.046 128.566 279.58 126.744 279.161C125 278.76 114.75 274.288 112.153 273.148C110.828 270.877 108.658 269.284 106.106 269.011C101.604 268.528 97.6078 272.337 97.1881 277.509C96.9481 280.465 97.9455 285.087 102.459 288.547C107.494 292.406 120.743 296.981 123.53 297.621C125.448 298.062 131.553 298.704 132.714 298.823Z" fill="#F0BDD6"/>
</svg>
