<svg width="130" height="237" viewBox="0 0 130 237" fill="none" xmlns="http://www.w3.org/2000/svg">
<path d="M5.05589 28.6714C2.3505 44.4827 -0.0535295 77.9735 1.44847 124.718C2.52465 158.21 10.7035 230.808 19.903 236.296C26.6756 239.449 34.3746 224.764 34.8596 221.596C36.8426 208.643 36.8831 200.581 37.5181 187.577C37.7447 182.956 37.5382 178.333 37.4086 173.696C37.3512 171.643 36.4052 167.616 36.4052 167.616C36.4052 167.616 38.6266 171.143 39.3352 173.087C40.6851 176.79 42.5147 180.174 44.0764 183.784C49.9671 197.394 54.9099 211.722 62.4331 224.643C65.2963 229.56 71.7431 234.507 76.9925 228.956C81.3278 224.372 79.4581 217.055 78.1689 211.431C75.2265 198.594 68.9205 186.013 63.0214 174.243L62.6715 173.545C59.3785 166.974 51.6329 156.084 51.6329 156.084C51.6329 156.084 63.8845 167.797 64.7515 168.49C68.2819 171.311 70.9856 175.067 74.456 177.937C77.167 180.178 79.8482 182.225 82.4191 184.656C89.2064 191.075 113.343 213.227 117.903 192.549C119.271 186.347 115.368 179.214 112.936 173.807C106.068 158.539 91.1864 149.06 77.8415 140.08C73.0783 136.875 67.5007 133.9 61.8171 133.031C59.6109 132.693 57.3548 132.044 55.1278 132.106L60.6768 131.951C64.4871 131.845 68.2435 131.409 72.0366 131.079C87.7754 129.711 102.428 127.47 117.321 122.039C121.957 120.349 130.712 119.306 129.551 112.534C128.436 106.035 120.477 102.522 115.059 100.722C105.033 97.3894 72.1527 95.4982 45.443 103.5C51.7562 98.2712 57.672 93.1408 63.598 87.4431C70.2855 81.0141 77.75 75.0377 83.5944 67.7256C87.7973 62.4678 90.5789 56.3978 94.5124 51.0381C98.8048 45.1891 104.153 37.5477 99.7651 30.3441C94.0382 20.9416 83.0601 32.1649 78.2718 36.2204C67.4391 45.3943 55.9206 55.245 46.6159 65.9817C41.5318 71.8487 37.7178 79.1049 32.4226 84.7044C31.8761 85.2831 33.3331 83.3981 33.7558 82.7235C34.788 81.0774 35.8007 79.4848 36.9536 77.9143C40.4139 73.1987 43.7817 68.6008 47.1086 63.7468C55.3317 51.7501 61.7479 35.2221 63.957 20.793C64.6385 16.345 66.1868 9.69295 63.5307 5.5334C59.8235 -0.271282 52.5408 8.56877 50.9151 11.1617C43.1728 23.5099 35.488 31.8996 29.9366 45.3935L20.0508 69.2235C20.0508 69.2235 24.4011 50.9651 24.7548 49.655C28.4342 36.0166 29.4034 26.3109 29.0128 12.3287C28.9022 8.37305 24.4903 -0.562303 18.1506 1.21195C10.3129 3.40568 6.32101 21.2736 5.05589 28.6714Z" fill="#939878"/>
</svg>
