<svg width="105" height="73" viewBox="0 0 105 73" fill="none" xmlns="http://www.w3.org/2000/svg">
<path d="M1.73393 47.2526C2.23599 53.8068 1.94127 63.2272 4.29846 67.5977C5.04931 68.9891 16.737 70.4837 20.6042 70.8518C29.4536 71.6926 38.321 72.3587 47.1934 72.9047C58.64 73.6096 96.6815 70.3747 100.447 64.1375C105.801 55.2657 105.053 12.3599 101.093 4.56175C100.582 3.55636 99.9822 2.55161 99.1471 1.7931C91.9518 -4.74258 84.5677 8.36323 81.6568 12.7599L80.4133 14.7043C79.6007 16.0154 78.8198 17.3467 78.041 18.6781C77.8987 18.9217 75.2985 25.2928 73.495 24.5228C71.6514 23.7356 69.2553 20.3214 68.3303 18.9639C63.6848 12.1468 62.0631 8.21459 56.1456 2.41254C55.0343 1.32294 51.0032 -0.531547 48.817 0.169547C38.1239 3.59655 31.1997 24.5318 28.6849 22.8993C20.9767 17.8959 15.8732 9.46431 8.54394 3.86512C7.42499 3.01029 4.64549 1.50475 3.03278 2.76723C1.07814 4.29765 0.370017 8.6554 0.248809 10.5998C-0.544787 23.3918 0.725988 34.1066 1.73393 47.2526Z" fill="#AED0A2"/>
</svg>
