<svg width="249" height="136" viewBox="0 0 249 136" fill="none" xmlns="http://www.w3.org/2000/svg">
<path d="M14.7975 4.38444L12.7587 2.27012C11.3571 0.816587 9.45605 0 7.47386 0C3.34616 0 0 3.4701 0 7.75068C0 9.80628 0.78742 11.7777 2.18904 13.2312L14.7975 26.3067L19.73 21.1915L27.4059 13.2312C28.8076 11.7777 29.595 9.80628 29.595 7.75068C29.595 3.4701 26.2488 0 22.1211 0C20.1389 0 18.2379 0.816586 16.8363 2.27012L14.7975 4.38444Z" fill="#DAD3C8"/>
<path d="M54.3925 4.38444L52.3536 2.27012C50.952 0.816587 49.051 0 47.0688 0C42.9411 0 39.595 3.4701 39.595 7.75068C39.595 9.80628 40.3824 11.7777 41.784 13.2312L54.3925 26.3067L59.325 21.1915L67.0009 13.2312C68.4025 11.7777 69.1899 9.80628 69.1899 7.75068C69.1899 3.4701 65.8438 0 61.7161 0C59.7339 0 57.8329 0.816586 56.4313 2.27012L54.3925 4.38444Z" fill="#DAD3C8"/>
<path d="M93.9874 4.38444L91.9486 2.27012C90.547 0.816587 88.646 0 86.6638 0C82.5361 0 79.1899 3.4701 79.1899 7.75068C79.1899 9.80628 79.9774 11.7777 81.379 13.2312L93.9874 26.3067L98.9199 21.1915L106.596 13.2312C107.997 11.7777 108.785 9.80628 108.785 7.75068C108.785 3.4701 105.439 0 101.311 0C99.3289 0 97.4279 0.816586 96.0262 2.27012L93.9874 4.38444Z" fill="#DAD3C8"/>
<path d="M133.582 4.38444L131.544 2.27012C130.142 0.816587 128.241 0 126.259 0C122.131 0 118.785 3.4701 118.785 7.75068C118.785 9.80628 119.572 11.7777 120.974 13.2312L133.582 26.3067L138.515 21.1915L146.191 13.2312C147.592 11.7777 148.38 9.80628 148.38 7.75068C148.38 3.4701 145.034 0 140.906 0C138.924 0 137.023 0.816586 135.621 2.27012L133.582 4.38444Z" fill="#DAD3C8"/>
<path d="M173.177 4.38444L171.139 2.27012C169.737 0.816587 167.836 0 165.854 0C161.726 0 158.38 3.4701 158.38 7.75068C158.38 9.80628 159.167 11.7777 160.569 13.2312L173.177 26.3067L178.11 21.1915L185.786 13.2312C187.187 11.7777 187.975 9.80628 187.975 7.75068C187.975 3.4701 184.629 0 180.501 0C178.519 0 176.618 0.816586 175.216 2.27012L173.177 4.38444Z" fill="#DAD3C8"/>
<path d="M212.772 4.38444L210.734 2.27012C209.332 0.816587 207.431 0 205.449 0C201.321 0 197.975 3.4701 197.975 7.75068C197.975 9.80628 198.762 11.7777 200.164 13.2312L212.772 26.3067L217.705 21.1915L225.381 13.2312C226.782 11.7777 227.57 9.80628 227.57 7.75068C227.57 3.4701 224.224 0 220.096 0C218.114 0 216.213 0.816586 214.811 2.27012L212.772 4.38444Z" fill="#DAD3C8"/>
<path d="M252.367 4.38444L250.329 2.27012C248.927 0.816587 247.026 0 245.044 0C240.916 0 237.57 3.4701 237.57 7.75068C237.57 9.80628 238.357 11.7777 239.759 13.2312L252.367 26.3067L257.3 21.1915L264.976 13.2312C266.377 11.7777 267.165 9.80628 267.165 7.75068C267.165 3.4701 263.819 0 259.691 0C257.709 0 255.808 0.816586 254.406 2.27012L252.367 4.38444Z" fill="#DAD3C8"/>
<path d="M14.7975 40.6911L12.7587 38.5768C11.3571 37.1232 9.45605 36.3066 7.47386 36.3066C3.34616 36.3066 0 39.7767 0 44.0573C0 46.1129 0.78742 48.0843 2.18904 49.5379L14.7975 62.6133L19.73 57.4981L27.4059 49.5379C28.8076 48.0843 29.595 46.1129 29.595 44.0573C29.595 39.7767 26.2488 36.3066 22.1211 36.3066C20.1389 36.3066 18.2379 37.1232 16.8363 38.5768L14.7975 40.6911Z" fill="#DAD3C8"/>
<path d="M54.3925 40.6911L52.3536 38.5768C50.952 37.1232 49.051 36.3066 47.0688 36.3066C42.9411 36.3066 39.595 39.7767 39.595 44.0573C39.595 46.1129 40.3824 48.0843 41.784 49.5379L54.3925 62.6133L59.325 57.4981L67.0009 49.5379C68.4025 48.0843 69.1899 46.1129 69.1899 44.0573C69.1899 39.7767 65.8438 36.3066 61.7161 36.3066C59.7339 36.3066 57.8329 37.1232 56.4313 38.5768L54.3925 40.6911Z" fill="#DAD3C8"/>
<path d="M93.9874 40.6911L91.9486 38.5768C90.547 37.1232 88.646 36.3066 86.6638 36.3066C82.5361 36.3066 79.1899 39.7767 79.1899 44.0573C79.1899 46.1129 79.9774 48.0843 81.379 49.5379L93.9874 62.6133L98.9199 57.4981L106.596 49.5379C107.997 48.0843 108.785 46.1129 108.785 44.0573C108.785 39.7767 105.439 36.3066 101.311 36.3066C99.3289 36.3066 97.4279 37.1232 96.0262 38.5768L93.9874 40.6911Z" fill="#DAD3C8"/>
<path d="M133.582 40.6911L131.544 38.5768C130.142 37.1232 128.241 36.3066 126.259 36.3066C122.131 36.3066 118.785 39.7767 118.785 44.0573C118.785 46.1129 119.572 48.0843 120.974 49.5379L133.582 62.6133L138.515 57.4981L146.191 49.5379C147.592 48.0843 148.38 46.1129 148.38 44.0573C148.38 39.7767 145.034 36.3066 140.906 36.3066C138.924 36.3066 137.023 37.1232 135.621 38.5768L133.582 40.6911Z" fill="#DAD3C8"/>
<path d="M173.177 40.6911L171.139 38.5768C169.737 37.1232 167.836 36.3066 165.854 36.3066C161.726 36.3066 158.38 39.7767 158.38 44.0573C158.38 46.1129 159.167 48.0843 160.569 49.5379L173.177 62.6133L178.11 57.4981L185.786 49.5379C187.187 48.0843 187.975 46.1129 187.975 44.0573C187.975 39.7767 184.629 36.3066 180.501 36.3066C178.519 36.3066 176.618 37.1232 175.216 38.5768L173.177 40.6911Z" fill="#DAD3C8"/>
<path d="M212.772 40.6911L210.734 38.5768C209.332 37.1232 207.431 36.3066 205.449 36.3066C201.321 36.3066 197.975 39.7767 197.975 44.0573C197.975 46.1129 198.762 48.0843 200.164 49.5379L212.772 62.6133L217.705 57.4981L225.381 49.5379C226.782 48.0843 227.57 46.1129 227.57 44.0573C227.57 39.7767 224.224 36.3066 220.096 36.3066C218.114 36.3066 216.213 37.1232 214.811 38.5768L212.772 40.6911Z" fill="#DAD3C8"/>
<path d="M252.367 40.6911L250.329 38.5768C248.927 37.1232 247.026 36.3066 245.044 36.3066C240.916 36.3066 237.57 39.7767 237.57 44.0573C237.57 46.1129 238.357 48.0843 239.759 49.5379L252.367 62.6133L257.3 57.4981L264.976 49.5379C266.377 48.0843 267.165 46.1129 267.165 44.0573C267.165 39.7767 263.819 36.3066 259.691 36.3066C257.709 36.3066 255.808 37.1232 254.406 38.5768L252.367 40.6911Z" fill="#DAD3C8"/>
<path d="M14.7975 76.9978L12.7587 74.8835C11.3571 73.4299 9.45605 72.6133 7.47386 72.6133C3.34616 72.6133 0 76.0834 0 80.364C0 82.4196 0.78742 84.391 2.18904 85.8446L14.7975 98.92L19.73 93.8048L27.4059 85.8446C28.8076 84.391 29.595 82.4196 29.595 80.364C29.595 76.0834 26.2488 72.6133 22.1211 72.6133C20.1389 72.6133 18.2379 73.4299 16.8363 74.8835L14.7975 76.9978Z" fill="#DAD3C8"/>
<path d="M54.3925 76.9978L52.3536 74.8835C50.952 73.4299 49.051 72.6133 47.0688 72.6133C42.9411 72.6133 39.595 76.0834 39.595 80.364C39.595 82.4196 40.3824 84.391 41.784 85.8446L54.3925 98.92L59.325 93.8048L67.0009 85.8446C68.4025 84.391 69.1899 82.4196 69.1899 80.364C69.1899 76.0834 65.8438 72.6133 61.7161 72.6133C59.7339 72.6133 57.8329 73.4299 56.4313 74.8835L54.3925 76.9978Z" fill="#DAD3C8"/>
<path d="M93.9874 76.9978L91.9486 74.8835C90.547 73.4299 88.646 72.6133 86.6638 72.6133C82.5361 72.6133 79.1899 76.0834 79.1899 80.364C79.1899 82.4196 79.9774 84.391 81.379 85.8446L93.9874 98.92L98.9199 93.8048L106.596 85.8446C107.997 84.391 108.785 82.4196 108.785 80.364C108.785 76.0834 105.439 72.6133 101.311 72.6133C99.3289 72.6133 97.4279 73.4299 96.0262 74.8835L93.9874 76.9978Z" fill="#DAD3C8"/>
<path d="M133.582 76.9978L131.544 74.8835C130.142 73.4299 128.241 72.6133 126.259 72.6133C122.131 72.6133 118.785 76.0834 118.785 80.364C118.785 82.4196 119.572 84.391 120.974 85.8446L133.582 98.92L138.515 93.8048L146.191 85.8446C147.592 84.391 148.38 82.4196 148.38 80.364C148.38 76.0834 145.034 72.6133 140.906 72.6133C138.924 72.6133 137.023 73.4299 135.621 74.8835L133.582 76.9978Z" fill="#DAD3C8"/>
<path d="M173.177 76.9978L171.139 74.8835C169.737 73.4299 167.836 72.6133 165.854 72.6133C161.726 72.6133 158.38 76.0834 158.38 80.364C158.38 82.4196 159.167 84.391 160.569 85.8446L173.177 98.92L178.11 93.8048L185.786 85.8446C187.187 84.391 187.975 82.4196 187.975 80.364C187.975 76.0834 184.629 72.6133 180.501 72.6133C178.519 72.6133 176.618 73.4299 175.216 74.8835L173.177 76.9978Z" fill="#DAD3C8"/>
<path d="M212.772 76.9978L210.734 74.8835C209.332 73.4299 207.431 72.6133 205.449 72.6133C201.321 72.6133 197.975 76.0834 197.975 80.364C197.975 82.4196 198.762 84.391 200.164 85.8446L212.772 98.92L217.705 93.8048L225.381 85.8446C226.782 84.391 227.57 82.4196 227.57 80.364C227.57 76.0834 224.224 72.6133 220.096 72.6133C218.114 72.6133 216.213 73.4299 214.811 74.8835L212.772 76.9978Z" fill="#DAD3C8"/>
<path d="M252.367 76.9978L250.329 74.8835C248.927 73.4299 247.026 72.6133 245.044 72.6133C240.916 72.6133 237.57 76.0834 237.57 80.364C237.57 82.4196 238.357 84.391 239.759 85.8446L252.367 98.92L257.3 93.8048L264.976 85.8446C266.377 84.391 267.165 82.4196 267.165 80.364C267.165 76.0834 263.819 72.6133 259.691 72.6133C257.709 72.6133 255.808 73.4299 254.406 74.8835L252.367 76.9978Z" fill="#DAD3C8"/>
<path d="M14.7975 113.304L12.7587 111.19C11.3571 109.737 9.45605 108.92 7.47386 108.92C3.34616 108.92 0 112.39 0 116.671C0 118.726 0.78742 120.698 2.18904 122.151L14.7975 135.227L19.73 130.111L27.4059 122.151C28.8076 120.698 29.595 118.726 29.595 116.671C29.595 112.39 26.2488 108.92 22.1211 108.92C20.1389 108.92 18.2379 109.737 16.8363 111.19L14.7975 113.304Z" fill="#DAD3C8"/>
<path d="M54.3925 113.304L52.3536 111.19C50.952 109.737 49.051 108.92 47.0688 108.92C42.9411 108.92 39.595 112.39 39.595 116.671C39.595 118.726 40.3824 120.698 41.784 122.151L54.3925 135.227L59.325 130.111L67.0009 122.151C68.4025 120.698 69.1899 118.726 69.1899 116.671C69.1899 112.39 65.8438 108.92 61.7161 108.92C59.7339 108.92 57.8329 109.737 56.4313 111.19L54.3925 113.304Z" fill="#DAD3C8"/>
<path d="M93.9874 113.304L91.9486 111.19C90.547 109.737 88.646 108.92 86.6638 108.92C82.5361 108.92 79.1899 112.39 79.1899 116.671C79.1899 118.726 79.9774 120.698 81.379 122.151L93.9874 135.227L98.9199 130.111L106.596 122.151C107.997 120.698 108.785 118.726 108.785 116.671C108.785 112.39 105.439 108.92 101.311 108.92C99.3289 108.92 97.4279 109.737 96.0262 111.19L93.9874 113.304Z" fill="#DAD3C8"/>
<path d="M133.582 113.304L131.544 111.19C130.142 109.737 128.241 108.92 126.259 108.92C122.131 108.92 118.785 112.39 118.785 116.671C118.785 118.726 119.572 120.698 120.974 122.151L133.582 135.227L138.515 130.111L146.191 122.151C147.592 120.698 148.38 118.726 148.38 116.671C148.38 112.39 145.034 108.92 140.906 108.92C138.924 108.92 137.023 109.737 135.621 111.19L133.582 113.304Z" fill="#DAD3C8"/>
<path d="M173.177 113.304L171.139 111.19C169.737 109.737 167.836 108.92 165.854 108.92C161.726 108.92 158.38 112.39 158.38 116.671C158.38 118.726 159.167 120.698 160.569 122.151L173.177 135.227L178.11 130.111L185.786 122.151C187.187 120.698 187.975 118.726 187.975 116.671C187.975 112.39 184.629 108.92 180.501 108.92C178.519 108.92 176.618 109.737 175.216 111.19L173.177 113.304Z" fill="#DAD3C8"/>
<path d="M212.772 113.304L210.734 111.19C209.332 109.737 207.431 108.92 205.449 108.92C201.321 108.92 197.975 112.39 197.975 116.671C197.975 118.726 198.762 120.698 200.164 122.151L212.772 135.227L217.705 130.111L225.381 122.151C226.782 120.698 227.57 118.726 227.57 116.671C227.57 112.39 224.224 108.92 220.096 108.92C218.114 108.92 216.213 109.737 214.811 111.19L212.772 113.304Z" fill="#DAD3C8"/>
<path d="M252.367 113.304L250.329 111.19C248.927 109.737 247.026 108.92 245.044 108.92C240.916 108.92 237.57 112.39 237.57 116.671C237.57 118.726 238.357 120.698 239.759 122.151L252.367 135.227L257.3 130.111L264.976 122.151C266.377 120.698 267.165 118.726 267.165 116.671C267.165 112.39 263.819 108.92 259.691 108.92C257.709 108.92 255.808 109.737 254.406 111.19L252.367 113.304Z" fill="#DAD3C8"/>
</svg>
