<svg width="175" height="161" viewBox="0 0 175 161" fill="none" xmlns="http://www.w3.org/2000/svg">
<path fill-rule="evenodd" clip-rule="evenodd" d="M60.378 58.3417C65.9928 49.5687 76.5612 46.8125 85.0105 51.2358C89.2597 53.4604 91.8429 56.4313 92.993 58.5338C92.9939 58.5332 93.0724 58.6498 93.334 58.8614C95.6739 60.7553 98.5216 61.3949 100.541 63.8922C102.768 66.6471 104.454 69.4477 105.396 72.6019C106.346 75.7796 106.461 79.0475 105.931 82.6265C105.872 83.0214 105.815 83.4269 105.756 83.8416C105.279 87.1978 104.716 91.1565 102.916 94.9365C102.179 96.4855 101.356 97.8247 100.256 99.0428C99.1658 100.25 97.9374 101.188 96.5699 102.074C96.2065 102.31 95.8392 102.567 95.3942 102.878C95.3178 102.931 95.2391 102.986 95.1578 103.043C94.634 103.409 94.0193 103.834 93.3648 104.236C92.0792 105.026 90.3566 105.911 88.2926 106.176C81.6896 107.025 72.1269 107.351 65.0802 102.491C60.8792 99.5941 59.0393 94.6764 58.0718 90.5384C57.3097 87.2785 56.9437 83.7606 56.6609 81.0423C56.5799 80.2639 56.5058 79.551 56.4311 78.9286C55.6674 72.5646 56.4882 64.4196 60.378 58.3417ZM81.2412 58.4358C76.6918 56.0541 70.6684 57.3393 67.2231 62.7226C64.6915 66.6782 63.8714 72.721 64.5001 77.9603C64.6019 78.8083 64.6929 79.6778 64.7853 80.5615C65.0622 83.2076 65.3525 85.9811 65.9854 88.6883C66.8426 92.3549 68.0924 94.6965 69.6942 95.8012C74.0247 98.7878 80.8001 98.9454 87.2563 98.1153C87.6529 98.0643 88.2202 97.8583 89.1111 97.3111C89.5447 97.0447 89.9898 96.7397 90.5045 96.3802C90.5729 96.3325 90.6432 96.2832 90.7153 96.2328C91.1533 95.9261 91.6553 95.5747 92.151 95.2536C93.1875 94.582 93.7826 94.0852 94.2249 93.5955C94.6573 93.1167 95.0764 92.4975 95.5788 91.4425C96.8138 88.8489 97.2049 86.1562 97.7145 82.6473C97.7716 82.254 97.8302 81.8504 97.8917 81.4356C98.2864 78.7711 98.1498 76.7371 97.6094 74.9286C97.0621 73.0967 96.02 71.227 94.2209 69.0018C93.7827 68.4598 93.4679 68.2371 93.0912 68.0239C92.8362 67.8797 92.5607 67.7455 92.0986 67.5206C89.6721 66.3394 87.1978 64.8812 85.8641 62.436C85.5147 61.7955 84.1258 59.946 81.2412 58.4358Z" fill="#F8C7FC"/>
<path fill-rule="evenodd" clip-rule="evenodd" d="M75.4559 26.3291C73.3924 26.2391 71.7483 26.0775 70.3048 25.9243C70.1338 25.9061 69.9626 25.8877 69.7913 25.8693C68.5511 25.7358 67.3061 25.6019 66.1265 25.5681C63.061 25.4804 60.4373 26.0603 56.7771 27.8904C56.4274 28.0652 56.0554 28.2461 55.6661 28.4353C53.1471 29.66 49.9078 31.2347 47.3522 33.7903C47.0957 34.0469 46.8362 34.305 46.5747 34.5653C42.1643 38.9542 37.1572 43.9369 35.3789 51.6966C34.5681 55.2349 34.4231 58.8559 34.4537 62.2375C34.4679 63.8141 34.5217 65.3901 34.5731 66.8952C34.577 67.0085 34.5808 67.1213 34.5847 67.2338C34.64 68.8618 34.689 70.4052 34.689 71.9008C34.689 75.9357 35.7383 79.8321 36.7605 83.1141C37.1497 84.3634 37.441 85.6783 37.7477 87.1562C37.7893 87.3568 37.8315 87.5617 37.8744 87.77C38.1356 89.0395 38.4236 90.4393 38.7885 91.8177C39.646 95.0574 40.8674 98.1496 42.0612 101.034C42.3006 101.612 42.5377 102.18 42.7713 102.739C43.7331 105.041 44.6365 107.203 45.3992 109.409C46.5467 112.729 47.9834 115.875 49.7938 118.924C51.0871 121.102 52.7726 122.646 54.0549 123.82C54.3855 124.123 54.6892 124.401 54.9526 124.659C57.4921 127.149 60.8154 128.255 63.6508 128.85C65.8631 129.314 68.2267 129.542 70.1162 129.724C70.6298 129.774 71.1084 129.82 71.5393 129.866C77.7191 130.534 84.6568 130.332 90.6782 129.655C93.1718 129.374 96.8074 128.896 99.8489 127.188C100.656 126.734 101.433 126.403 102.404 125.99C102.946 125.759 103.548 125.503 104.249 125.185C105.951 124.414 108.065 123.334 109.799 121.54C110.381 120.939 110.934 120.448 111.595 119.86C112 119.501 112.445 119.105 112.963 118.627C114.16 117.519 115.56 116.108 116.626 114.302C117.817 112.287 119.142 110.353 120.556 108.327C120.735 108.071 120.915 107.813 121.097 107.554C122.331 105.791 123.627 103.938 124.846 102.013C129.348 94.9048 129.311 85.7358 128.264 78.7062C127.132 71.1069 124.564 62.5017 120.088 55.6984C116.409 50.1051 112.26 44.2411 106.43 39.7232C105.338 38.8767 104.239 38.0198 103.134 37.1587C100.257 34.9163 97.3439 32.6455 94.4239 30.4554C90.2609 27.3332 83.5466 25.6488 78.4316 26.126C78.3502 26.1336 78.2701 26.1411 78.1912 26.1485C77.1485 26.2462 76.314 26.3244 75.4559 26.3291ZM65.8941 33.6917C64.3848 33.6485 63.0829 33.8237 60.4116 35.1593C59.9501 35.3901 59.5091 35.6074 59.087 35.8154C56.4965 37.0919 54.6183 38.0175 53.0988 39.5369C52.9953 39.6404 52.8924 39.7433 52.7901 39.8456C47.9926 44.6412 44.5432 48.0892 43.3005 53.5119C42.7004 56.1308 42.5517 59.0104 42.5803 62.164C42.5936 63.6343 42.644 65.113 42.6961 66.6396C42.6997 66.7454 42.7033 66.8514 42.7069 66.9577C42.7619 68.5759 42.8159 70.2488 42.8159 71.9008C42.8159 74.6366 43.5384 77.5467 44.5198 80.6973C45.0364 82.356 45.3945 84.0081 45.7051 85.5047C45.7516 85.7286 45.7968 85.9484 45.8414 86.1645C46.1053 87.4449 46.3427 88.5969 46.6448 89.7381C47.3539 92.417 48.3943 95.0844 49.5704 97.9261C49.7847 98.444 50.0049 98.9707 50.2282 99.5047C51.198 101.824 52.2253 104.281 53.0802 106.754C54.0575 109.581 55.267 112.224 56.7818 114.775C57.4155 115.842 57.9807 116.363 59.0121 117.314C59.4552 117.723 59.9844 118.211 60.642 118.856C61.5405 119.737 63.0517 120.421 65.3188 120.896C67.0458 121.258 68.7862 121.427 70.6075 121.604C71.1999 121.662 71.8009 121.72 72.4128 121.786C77.8609 122.375 84.1826 122.207 89.7697 121.579C92.3449 121.289 94.4326 120.909 95.8684 120.102C97.0651 119.43 98.5268 118.805 99.7104 118.298C100.154 118.108 100.559 117.935 100.896 117.782C102.388 117.106 103.332 116.538 103.956 115.892C104.736 115.085 105.705 114.221 106.514 113.499C106.862 113.189 107.18 112.905 107.442 112.663C108.476 111.705 109.175 110.937 109.63 110.168C110.991 107.864 112.471 105.712 113.892 103.676C114.078 103.409 114.263 103.145 114.446 102.883C115.688 101.108 116.868 99.4204 117.98 97.6647C120.883 93.0807 121.188 86.3657 120.225 79.9034C119.201 73.0279 116.918 65.6659 113.299 60.1651C109.66 54.6332 106.132 49.7735 101.452 46.1468C100.32 45.2696 99.1973 44.3943 98.0794 43.523C95.2247 41.2979 92.4031 39.0985 89.5477 36.957C86.8968 34.9688 82.4945 33.9092 79.1866 34.2178C79.0922 34.2266 78.9956 34.2357 78.897 34.2451C77.8856 34.3406 76.6615 34.4563 75.374 34.4563H75.288L75.2021 34.4527C72.8437 34.3528 70.9765 34.1682 69.4469 34.0058C69.2682 33.9868 69.0966 33.9685 68.9314 33.9508C67.6319 33.8119 66.7324 33.7157 65.8941 33.6917Z" fill="#F8C7FC"/>
<path fill-rule="evenodd" clip-rule="evenodd" d="M73.4325 2.16718H73.4866C77.9636 2.16718 83.509 2.20121 88.7191 3.66004C91.1949 4.35326 93.7647 4.64867 96.7166 4.98798C97.2071 5.04437 97.7081 5.10197 98.2211 5.1628C101.659 5.57056 105.544 6.12233 109.309 7.67616C111.421 8.5477 113.411 8.97981 115.81 9.50066C116.778 9.71067 117.811 9.93512 118.946 10.2086C124.041 11.4363 129.263 14.4676 133.067 16.9746C133.478 17.2456 133.923 17.5331 134.39 17.8351C135.997 18.8748 137.873 20.0878 139.583 21.4013C141.819 23.1185 144.16 25.2834 145.748 28.0626C146.003 28.5082 146.26 28.9566 146.518 29.4078C148.71 33.2324 151.015 37.2548 152.968 41.4211C153.077 41.6549 153.196 41.9021 153.321 42.162C154.134 43.8519 155.203 46.0759 155.641 48.5951C155.78 49.3921 155.886 50.0962 155.983 50.7415C156.181 52.0599 156.343 53.1335 156.671 54.2549C156.873 54.9466 157.133 55.5938 157.479 56.4537C157.531 56.5846 157.586 56.7203 157.643 56.8619C158.041 57.8563 158.525 59.1049 158.836 60.5206C158.971 61.1335 159.119 61.7741 159.271 62.4351C159.726 64.4048 160.222 66.5561 160.543 68.6983C161.812 77.1559 161.452 86.6788 160.184 94.9205C160.05 95.7916 159.93 96.7717 159.802 97.817C159.47 100.523 159.084 103.666 158.268 106.486C157.439 109.35 155.674 111.752 154.264 113.576C153.971 113.955 153.692 114.312 153.428 114.649C152.264 116.136 151.379 117.268 150.757 118.468C147.586 124.587 143.683 129.989 139.438 135.127C131.389 144.871 122.539 152.739 109.8 157.068C105.089 158.669 99.9644 160.262 94.4139 160.57C90.9253 160.764 87.4907 160.689 84.1995 160.618C83.0413 160.593 81.9008 160.568 80.7821 160.555C76.3673 160.506 71.9241 160.102 67.7273 159.698C66.5229 159.582 65.2819 159.598 63.7806 159.617C63.4086 159.622 63.0208 159.627 62.6135 159.631C60.7187 159.646 58.4445 159.618 56.2105 159.113C49.0617 157.499 42.7622 155.3 36.8356 149.83C34.0288 147.239 32.4497 144.152 31.1399 141.48C29.8975 138.945 28.2806 136.668 26.3874 134.023C22.5202 128.62 19.1053 122.62 15.9484 117.073L15.7361 116.7C11.9764 110.095 8.93784 103.108 6.26821 96.1839C6.03094 95.5685 5.7832 94.9389 5.53015 94.2958C3.50528 89.1496 1.14102 83.1408 1.08828 76.6542C0.995303 65.218 2.25311 52.8189 7.7256 41.8739C9.92959 37.4659 13.0168 33.7823 15.8013 30.4599C16.4513 29.6843 17.0849 28.9283 17.6868 28.1875C21.4913 23.5051 25.3242 19.6843 30.608 16.2155C33.8321 14.0989 37.3399 12.6138 40.6597 11.3587C41.8891 10.8939 43.0589 10.4716 44.191 10.0629C46.2619 9.31522 48.2071 8.61297 50.1623 7.77873C57.7696 4.53298 64.5988 2.40274 73.3783 2.16862L73.4325 2.16718ZM73.5417 10.2941C66.1806 10.498 60.4147 12.2402 53.3517 15.2537C51.1986 16.1723 48.8586 17.0186 46.6437 17.8196C45.5654 18.2096 44.5167 18.5888 43.5337 18.9605C40.3727 20.1556 37.5337 21.3906 35.068 23.0093C30.6629 25.9012 27.4287 29.0853 23.9943 33.3123C23.2271 34.2565 22.4837 35.1467 21.7677 36.004C19.053 39.2547 16.7315 42.0345 14.9946 45.5084C10.3652 54.767 9.12607 65.6563 9.21495 76.5881C9.25465 81.4714 11.0274 86.0152 13.1101 91.3534C13.3536 91.9776 13.6014 92.6127 13.8511 93.2604C16.444 99.9858 19.3164 106.562 22.7989 112.68L22.9175 112.888C26.1415 118.552 29.3775 124.237 32.9962 129.293L33.0631 129.387C34.8796 131.925 36.8701 134.706 38.4373 137.903C39.7403 140.561 40.7632 142.395 42.348 143.858C46.7675 147.938 51.4696 149.711 58.0005 151.186C59.2419 151.466 60.695 151.519 62.548 151.504C62.8464 151.501 63.1606 151.497 63.487 151.492C65.0164 151.471 66.8141 151.445 68.507 151.608C72.7153 152.014 76.8443 152.384 80.8734 152.429C82.1787 152.444 83.4306 152.471 84.651 152.497C87.8392 152.566 90.8128 152.631 93.9631 152.456C98.3152 152.214 102.529 150.955 107.186 149.373C117.968 145.709 125.651 139.057 133.173 129.951C137.2 125.075 140.725 120.164 143.541 114.729C144.549 112.785 146.016 110.921 147.193 109.426C147.419 109.139 147.634 108.865 147.834 108.607C149.244 106.781 150.105 105.457 150.461 104.226C151.091 102.052 151.342 99.9794 151.633 97.5837C151.779 96.383 151.934 95.1011 152.152 93.6848C153.328 86.0428 153.626 77.3665 152.506 69.9038C152.236 68.1003 151.844 66.4019 151.412 64.5284C151.246 63.806 151.073 63.0574 150.899 62.2667C150.742 61.554 150.48 60.8375 150.098 59.8817C150.052 59.768 150.004 59.6489 149.954 59.525C149.618 58.6923 149.194 57.6418 148.87 56.535C148.38 54.8574 148.086 52.9174 147.854 51.3808C147.776 50.8618 147.704 50.3889 147.634 49.9876C147.403 48.6565 146.871 47.5359 146.042 45.7874C145.906 45.5 145.762 45.1956 145.609 44.8705C143.807 41.0256 141.674 37.3015 139.46 33.4364C139.205 32.9912 138.949 32.5441 138.692 32.0947C137.877 30.6682 136.502 29.2816 134.633 27.8468C133.21 26.7533 131.722 25.7905 130.167 24.7844C129.651 24.45 129.126 24.1107 128.595 23.7603C124.937 21.3495 120.696 18.9896 117.043 18.1094C116.306 17.9319 115.512 17.7598 114.678 17.5792C112.057 17.0116 109.046 16.3593 106.209 15.1885C103.563 14.0965 100.654 13.6353 97.2639 13.2332C96.8157 13.18 96.3557 13.1277 95.8858 13.0743C92.971 12.7428 89.6802 12.3687 86.5278 11.486C82.5614 10.3754 78.1149 10.2947 73.5417 10.2941Z" fill="#F8C7FC"/>
</svg>
