<svg width="162" height="127" viewBox="0 0 162 127" fill="none" xmlns="http://www.w3.org/2000/svg">
<path fill-rule="evenodd" clip-rule="evenodd" d="M40.0847 55.7191C38.836 57.0831 37.553 58.4847 36.2139 59.9326C36.037 60.1239 35.8425 60.3372 35.6305 60.5697C32.99 63.4656 27.646 69.3264 20.0603 72.3743C13.4086 75.0468 6.46461 74.6473 0.477013 71.4902C-4.73457 68.7422 -8.07143 64.5194 -10.0663 61.4672C-13.2749 56.5578 -15.6927 50.1362 -16.7538 47.318C-16.9367 46.8321 -17.0793 46.4533 -17.1787 46.2078C-20.9091 36.9949 -26.24 35.5679 -28.9574 35.6595C-32.0549 35.7639 -36.8905 37.9468 -39.4472 45.4021C-41.7697 52.1747 -42.2503 60.6542 -39.3478 69.4445C-39.3478 69.4445 -35.1864 80.0056 -36.0775 86.1192C-36.9685 92.2328 -59.4123 100.692 -62.9719 93.9685C-65.8626 88.5083 -69.3928 79.365 -69.3928 79.365C-74.5459 63.7586 -73.8512 48.1866 -69.3767 35.1386C-63.0772 16.7686 -47.7614 4.63469 -30.0229 4.03699C-8.92432 3.32608 6.2181 18.8487 13.3133 37.3286C13.3831 37.5105 13.4524 37.6903 13.5212 37.8684C14.4406 36.871 15.3842 35.8398 16.349 34.7856C24.7965 25.5544 33.6624 15.5072 43.978 8.31309C50.3366 3.87863 59.5221 -0.786523 70.6326 0.112122C75.7688 0.527552 80.7101 2.2205 84.9199 5.49349C89.037 8.69433 91.5333 12.6879 93.0524 16.2914C95.8037 22.8181 96.0741 30.0256 96.2157 33.8006L96.2185 33.8761C96.3456 37.2607 96.3974 40.7321 96.3309 44.2539C106.773 40.994 122.167 38.1442 136.527 45.3243C151.797 52.959 158.972 70.505 155.116 86.1192C152.149 98.1327 144.119 105.377 138.466 110.041C135.723 112.304 133.263 114.237 130.999 116.016C127.286 118.933 124.1 121.437 121.056 124.305C121.611 124.489 122.156 124.674 122.663 124.855C131.115 127.857 139.384 132.294 146.648 138.499C152.669 143.641 158.229 150.644 160.442 159.518C162.79 168.931 160.868 178.484 155.249 186.957C144.311 203.451 120.067 232 96.3309 232C91.5941 232 78.0975 223.078 83.152 211.803C85.6792 206.165 95.3962 201.785 95.3962 201.785C96.4256 200.943 97.4442 200.112 98.4512 199.291C110.953 189.094 121.656 180.364 128.88 169.471C129.57 168.429 129.722 167.821 129.758 167.633C129.789 167.472 129.789 167.363 129.742 167.175C129.615 166.665 128.919 164.967 126.098 162.558C122.188 159.218 117.431 156.574 112.071 154.669C110.986 154.284 110.118 154.013 109.014 153.67C108.259 153.435 107.394 153.165 106.274 152.801C103.959 152.049 101.01 151.019 97.986 149.495C95.3276 148.155 90.5674 145.472 87.3165 140.351C83.4152 134.206 83.3728 127.443 85.1933 121.706C87.6186 114.062 92.3332 108.387 96.0378 104.554C101.361 99.0467 107.869 93.9249 113.222 89.7122C115.1 88.234 116.836 86.8677 118.329 85.636C123.088 81.709 124.029 80.028 124.398 78.5324C124.601 77.7145 124.542 76.6209 124.068 75.5515C123.605 74.5068 122.94 73.9057 122.377 73.6244C113.494 69.1827 102.506 76.2632 93.9063 78.8863C91.3941 79.6526 87.4366 80.6896 83.2518 80.6291C79.456 80.5743 69.7341 79.2801 65.4359 69.2822C62.8275 63.2148 73.0821 33.8761 64.4897 32.7685C59.4963 32.1248 43.8252 51.6328 40.0847 55.7191Z" fill="#CA99F0"/>
</svg>
