<svg width="218" height="330" viewBox="0 0 218 330" fill="none" xmlns="http://www.w3.org/2000/svg">
<path d="M-29.9229 269.39C47.8039 254.832 142.121 44.4695 -60.0338 75.0202M-29.9229 269.39C-0.384707 274.657 140.304 53.3942 -60.0338 75.0202M-29.9229 269.39C-1.1502 268.588 152.166 63.4164 -60.0338 75.0202M-29.9229 269.39C12.8689 277.521 151.522 77.6157 -60.0338 75.0202M-29.9229 269.39C2.93849 245.166 160.762 82.1917 -60.0338 75.0202" stroke="#DAD3C8" stroke-width="2"/>
<path d="M-47.5271 100.755C-63.3182 78.7781 -91.3959 79.6466 -88.3406 106.536C-85.8164 128.751 -76.6331 156.449 -61.8686 186.38C-47.1042 216.311 -9.7634 245.553 12.6221 273.835C35.0075 302.118 41.5087 328.266 64.5114 346.051C87.5142 363.837 108.456 374.199 124.879 375.923C141.303 377.647 153.061 367.17 157.766 352.293C162.471 337.416 179.984 317.694 171.499 290.87C164.063 267.361 152.092 246.606 122.789 217.287C114.289 208.782 102.688 204.215 90.6667 203.974L50.2126 203.164C34.7851 202.856 20.4044 195.298 11.4003 182.767L-47.5271 100.755Z" fill="#C8DAD4"/>
</svg>
