<svg width="361" height="320" viewBox="0 0 361 320" fill="none" xmlns="http://www.w3.org/2000/svg">
<path d="M489.519 200.456C513.732 212.541 538.17 198.688 522.935 176.321C510.349 157.843 489.315 137.616 462.303 118.015C435.291 98.4141 388.625 89.9439 355.639 75.3533C322.652 60.7627 304.714 40.6571 276.073 35.6416C247.433 30.6261 224.074 31.2175 208.741 37.3463C193.407 43.4752 187.886 58.224 190.656 73.5796C193.426 88.9353 187.123 114.546 207.131 134.324C224.667 151.659 244.931 164.444 284.521 176.728C296.005 180.291 308.398 178.925 319.146 173.536L355.315 155.399C369.109 148.482 385.355 148.467 399.161 155.358L489.519 200.456Z" fill="#D4C8DA"/>
<path d="M768.943 111.438C557.641 440.436 79.1636 349.352 345.27 -177.843" stroke="#D0BEA2" stroke-width="17"/>
<path d="M772.939 31.9361C455.393 409.205 164.34 279.89 412.022 -145.404" stroke="#A2BDD0" stroke-width="16"/>
<path d="M86.5483 -158.932C41.6771 -55.5934 206.677 226.257 331.709 -36.5703M86.5483 -158.932C57.1971 -128.429 197.949 216.872 331.709 -36.5703M86.5483 -158.932C64.7146 -124.402 177.158 222.7 331.709 -36.5703M86.5483 -158.932C43.458 -115.149 161.497 210.413 331.709 -36.5703M86.5483 -158.932C88.1552 -100.571 148.98 217.578 331.709 -36.5703" stroke="#DAD3C8" stroke-width="2"/>
</svg>
