<svg width="370" height="676" viewBox="0 0 370 676" fill="none" xmlns="http://www.w3.org/2000/svg">
<path d="M227.271 -143.693C229.379 -165.635 214.828 -185.734 195.991 -174.287C192.769 -172.329 189.464 -170.034 186.087 -167.405C168.446 -153.669 149.598 -131.392 131.754 -103.188C113.91 -74.9844 108.424 -27.8745 95.9604 5.97301C83.4966 39.8205 64.5723 59.0009 61.3879 87.9024C58.2035 116.804 60.2788 140.077 67.3702 154.991C74.4615 169.904 89.5315 174.475 104.68 170.735C119.828 166.994 138.529 182.241 164.254 150.431C189.979 118.621 162.582 81.1281 166.265 51.3527C169.948 21.5774 240.065 74.0934 226.852 14.3368C218.028 -25.5764 222.997 -99.1988 227.271 -143.693Z" fill="#C8CCDA"/>
<path d="M-179.309 18.217C237.694 107.418 439.823 404.317 -137.303 529.507" stroke="#D0A2CB" stroke-width="17"/>
<path d="M-207.84 49.0395C90.074 32.095 411.293 435.139 -165.833 560.329" stroke="#D0BEA2" stroke-width="17"/>
</svg>
