<svg width="74" height="126" viewBox="0 0 74 126" fill="none" xmlns="http://www.w3.org/2000/svg">
<path d="M44.7256 0.893214C41.8526 1.32272 40.5358 6.02298 39.7227 8.92537C39.5799 9.43498 39.4527 9.88923 39.3353 10.2551C35.8825 21.0154 35.7945 26.2928 35.0924 26.8856C34.3462 27.5156 32.9064 22.8547 25.9972 13.8609C25.7757 13.5726 25.518 13.2065 25.2288 12.7958C23.5817 10.4565 20.9145 6.66821 18.1115 7.53796C16.9761 7.89029 16.235 8.20502 15.4939 9.41342C14.2679 11.4126 14.3041 13.8928 15.2959 16.286C18.9698 25.1509 26.7183 31.7286 33.8705 33.8618C33.8682 35.4671 34.2816 37.6128 34.3282 39.2588C34.4619 43.9865 34.6037 48.7244 34.7324 53.4599C31.4581 49.8724 28.061 47.1667 24.4612 44.0854C20.3084 40.5308 16.0199 37.0362 11.9198 35.0307C9.1295 33.6658 4.91458 31.7234 3.6283 33.6002C2.40803 35.3806 2.90558 39.1212 5.37391 42.8638C8.42708 47.4931 14.0297 52.7042 17.9004 55.4064C22.8103 58.8341 29.2128 59.8845 34.4378 58.3106C34.5499 60.9626 35.4602 66.5923 35.6656 69.2543C36.057 74.3284 36.0648 77.4951 36.0957 81.503C34.1015 79.0819 28.3731 72.8406 23.2203 69.1597C22.9514 68.9676 22.6321 68.7143 22.2739 68.4302C20.2337 66.8119 16.9297 64.1912 14.4744 66.1597C13.4798 66.9571 12.8484 67.5601 12.4044 69.0331C11.6698 71.47 12.2238 73.8702 13.6587 75.8031C19.3689 83.4953 28.9508 86.7357 36.3944 85.238C36.1954 90.7527 36.2914 95.4044 37.9639 104.365C35.4624 101.52 32.2099 99.3595 29.3903 97.4153C28.2191 96.6078 27.0477 95.8001 25.8795 94.8966C20.9845 91.1112 15.9367 87.405 11.1622 85.3995C7.91312 84.0346 3.00968 82.1103 1.60914 84.3667C0.280478 86.5072 0.995587 90.7777 3.96824 94.9043C7.8286 100.263 13.9223 105.381 18.8037 108.419C22.9142 110.977 28.8203 112.248 33.1885 111.503C33.551 111.441 33.9157 111.385 34.2797 111.329C35.6615 111.116 37.191 111.024 38.463 110.248C38.6263 112.097 40.2554 123.375 40.9484 124.758C41.3101 125.48 41.8237 125.753 42.8083 125.353C43.3361 125.138 43.3158 124.898 43.0264 120.44C42.7608 117.683 42.4409 114.286 42.1984 111.614C43.5629 111.949 44.9932 111.683 46.3414 111.534C46.7071 111.494 47.0735 111.454 47.4389 111.42C51.9293 111 57.2347 108.314 60.7516 104.683C62.8731 102.493 65.0769 99.5603 66.9577 96.6891C67.2287 96.2755 67.5072 95.856 67.7893 95.4309C69.3944 93.0132 71.1194 90.4147 72.257 87.6945C74.257 82.912 74.0326 78.5768 72.2809 76.8425C70.4344 75.0144 66.0844 78.1591 63.2213 80.3301C59.0141 83.5202 54.9073 88.4337 50.9661 93.3845C50.0255 94.5661 49.0612 95.6555 48.0971 96.7447C46.1271 98.9703 44.2941 101.35 42.4841 103.81C42.1631 104.246 41.8806 104.668 41.6345 105.074C39.4742 93.0031 39.2814 90.8064 39.4558 85.8221C39.6679 85.9979 40.5243 85.719 40.8782 85.7015C48.4457 85.3276 57.1144 79.7966 61.0721 70.8817C62.0655 68.644 62.1035 66.1696 60.8789 63.9785C60.1387 62.6541 59.3979 62.2233 58.2628 61.6931C55.4606 60.3844 52.7908 63.7547 51.1422 65.8358C50.8528 66.2013 50.5948 66.5269 50.3731 66.7806C45.6278 72.2094 40.8508 80.9262 40.0318 82.7871C39.96 82.9502 39.8359 83.6986 39.3035 84.0256C39.212 82.9463 38.8711 79.4463 38.428 73.7025C38.3247 72.3635 38.0198 61.0562 38.2844 61.0483C43.7545 60.886 49.6513 57.7252 53.4493 52.9434C56.5994 48.9773 60.5494 42.4234 62.3773 36.88C63.8233 32.4951 63.3786 28.7458 61.7688 27.4298C60.072 26.0426 56.5063 29.2618 54.1654 31.4687C50.7254 34.7116 47.4719 39.4438 44.3632 44.1901C43.6213 45.3229 42.8536 46.378 42.0861 47.4329C41.3677 48.4204 40.6493 49.4077 39.9524 50.4583C39.3837 51.3157 38.8334 52.2395 38.2861 53.1585C38.1516 53.3843 38.0173 53.6099 37.8829 53.834C37.807 51.2735 37.7524 48.7057 37.6973 46.1172C37.6462 43.7131 37.5947 41.291 37.5254 38.8404C37.4754 37.0715 37.4786 35.3419 37.482 33.5457C37.4835 33.3253 37.4828 33.1046 37.4832 32.8841C43.7582 27.8953 49.3091 18.0148 50.029 7.78274C50.2164 5.11969 49.4886 2.79775 47.735 1.48062C46.6751 0.684482 45.8894 0.719224 44.7256 0.893214Z" fill="#3D5138"/>
</svg>
