<svg width="719" height="768" viewBox="0 0 719 768" fill="none" xmlns="http://www.w3.org/2000/svg">
<path d="M539.371 483.225C201.302 679.688 -183.012 380.456 294.204 32.5871" stroke="#D0BEA2" stroke-width="17"/>
<path d="M584.227 490.314C246.158 686.776 -138.155 387.544 339.06 39.6758" stroke="#71DDFF" stroke-width="17"/>
<path d="M321.239 683.543C337.279 705.339 365.345 704.151 361.984 677.299C359.208 655.114 349.711 627.522 334.607 597.761C319.504 567.999 281.833 539.183 259.128 511.157C236.423 483.131 229.625 457.057 206.422 439.535C183.218 422.012 162.16 411.888 145.718 410.351C129.277 408.814 117.639 419.423 113.102 434.353C108.566 449.282 91.279 469.202 100.068 495.927C107.771 519.351 119.976 539.969 149.611 568.953C158.206 577.36 169.859 581.796 181.882 581.9L222.343 582.25C237.773 582.384 252.238 589.778 261.384 602.206L321.239 683.543Z" fill="#D4C8DA"/>
</svg>
