<svg width="22" height="22" viewBox="0 0 22 22" fill="none" xmlns="http://www.w3.org/2000/svg">
<path d="M18.7236 3.24121C16.6777 1.19043 13.9531 0.0625 11.0576 0.0625C5.08105 0.0625 0.217773 4.92578 0.217773 10.9023C0.217773 12.8115 0.71582 14.6768 1.66309 16.3223L0.125 21.9375L5.87207 20.4287C7.4541 21.293 9.23633 21.7471 11.0527 21.7471H11.0576C17.0293 21.7471 22 16.8838 22 10.9072C22 8.01172 20.7695 5.29199 18.7236 3.24121ZM11.0576 19.9209C9.43652 19.9209 7.84961 19.4863 6.46777 18.666L6.14062 18.4707L2.73242 19.3643L3.64062 16.0391L3.42578 15.6973C2.52246 14.2617 2.04883 12.6064 2.04883 10.9023C2.04883 5.93652 6.0918 1.89355 11.0625 1.89355C13.4697 1.89355 15.7305 2.83105 17.4297 4.53516C19.1289 6.23926 20.1738 8.5 20.1689 10.9072C20.1689 15.8779 16.0234 19.9209 11.0576 19.9209ZM15.999 13.1729C15.7305 13.0361 14.3975 12.3818 14.1484 12.2939C13.8994 12.2012 13.7188 12.1572 13.5381 12.4307C13.3574 12.7041 12.8398 13.3096 12.6787 13.4951C12.5225 13.6758 12.3613 13.7002 12.0928 13.5635C10.501 12.7676 9.45605 12.1426 8.40625 10.3408C8.12793 9.8623 8.68457 9.89648 9.20215 8.86133C9.29004 8.68066 9.24609 8.52441 9.17773 8.3877C9.10938 8.25098 8.56738 6.91797 8.34277 6.37598C8.12305 5.84863 7.89844 5.92188 7.73242 5.91211C7.57617 5.90234 7.39551 5.90234 7.21484 5.90234C7.03418 5.90234 6.74121 5.9707 6.49219 6.23926C6.24316 6.5127 5.54492 7.16699 5.54492 8.5C5.54492 9.83301 6.5166 11.1221 6.64844 11.3027C6.78516 11.4834 8.55762 14.2178 11.2773 15.3945C12.9961 16.1367 13.6699 16.2002 14.5293 16.0732C15.0518 15.9951 16.1309 15.4189 16.3555 14.7842C16.5801 14.1494 16.5801 13.6074 16.5117 13.4951C16.4482 13.373 16.2676 13.3047 15.999 13.1729Z" fill="black"/>
</svg>
