<svg width="22" height="22" viewBox="0 0 22 22" fill="none" xmlns="http://www.w3.org/2000/svg">
<path d="M10.946 5.38965C7.84058 5.38965 5.33569 7.89453 5.33569 11C5.33569 14.1055 7.84058 16.6103 10.946 16.6103C14.0515 16.6103 16.5564 14.1055 16.5564 11C16.5564 7.89453 14.0515 5.38965 10.946 5.38965ZM10.946 14.6475C8.93921 14.6475 7.29858 13.0117 7.29858 11C7.29858 8.98828 8.93433 7.35254 10.946 7.35254C12.9578 7.35254 14.5935 8.98828 14.5935 11C14.5935 13.0117 12.9529 14.6475 10.946 14.6475ZM18.0945 5.16016C18.0945 5.8877 17.5085 6.46875 16.7859 6.46875C16.0584 6.46875 15.4773 5.88281 15.4773 5.16016C15.4773 4.4375 16.0632 3.85156 16.7859 3.85156C17.5085 3.85156 18.0945 4.4375 18.0945 5.16016ZM21.8103 6.48828C21.7273 4.73535 21.3269 3.18262 20.0427 1.90332C18.7634 0.624023 17.2107 0.223633 15.4578 0.135742C13.6511 0.0332031 8.23608 0.0332031 6.42944 0.135742C4.6814 0.21875 3.12866 0.619141 1.84448 1.89844C0.560303 3.17773 0.164795 4.73047 0.0769043 6.4834C-0.0256348 8.29004 -0.0256348 13.7051 0.0769043 15.5117C0.159912 17.2646 0.560303 18.8174 1.84448 20.0967C3.12866 21.376 4.67651 21.7764 6.42944 21.8643C8.23608 21.9668 13.6511 21.9668 15.4578 21.8643C17.2107 21.7812 18.7634 21.3809 20.0427 20.0967C21.322 18.8174 21.7224 17.2646 21.8103 15.5117C21.9128 13.7051 21.9128 8.29492 21.8103 6.48828ZM19.4763 17.4502C19.0955 18.4072 18.3582 19.1445 17.3962 19.5303C15.9558 20.1016 12.5378 19.9697 10.946 19.9697C9.35425 19.9697 5.9314 20.0967 4.49585 19.5303C3.53882 19.1494 2.80151 18.4121 2.41577 17.4502C1.84448 16.0098 1.97632 12.5918 1.97632 11C1.97632 9.4082 1.84937 5.98535 2.41577 4.5498C2.79663 3.59277 3.53394 2.85547 4.49585 2.46973C5.93628 1.89844 9.35425 2.03027 10.946 2.03027C12.5378 2.03027 15.9607 1.90332 17.3962 2.46973C18.3533 2.85059 19.0906 3.58789 19.4763 4.5498C20.0476 5.99023 19.9158 9.4082 19.9158 11C19.9158 12.5918 20.0476 16.0146 19.4763 17.4502Z" fill="#262525"/>
</svg>
