<svg width="76" height="51" viewBox="0 0 76 51" fill="none" xmlns="http://www.w3.org/2000/svg">
<path d="M1.42773 21.4224C1.93799 20.5967 2.56885 19.8545 3.30176 19.1958C2.92139 21.8398 2.57812 24.4839 2.29053 27.1465C2.23486 27.666 3.05127 27.6567 3.10693 27.1465C3.42236 24.252 3.76562 21.3481 4.19238 18.4629C6.10352 17.0249 8.46924 16.0415 10.7979 15.4199C11.0391 20.7358 10.8906 26.0703 10.7329 31.3862C10.7236 31.9243 11.4937 31.8872 11.5493 31.3862C11.605 30.9316 11.6514 30.4863 11.707 30.0317C11.7256 29.8926 11.6792 29.7905 11.5957 29.7256C11.7349 24.8921 11.8276 20.0586 11.605 15.2251C12.2266 15.0767 12.8389 14.9561 13.4326 14.8633C13.9521 14.7798 13.7295 14.0005 13.2192 14.084C12.6719 14.1675 12.1245 14.2695 11.5679 14.3994C11.4194 11.8296 11.1875 9.26904 10.8071 6.71777C10.5938 5.31689 10.603 2.13477 8.88672 1.52246C7.23535 0.937988 6.45605 3.95312 6.12207 4.99219C5.07373 8.25781 4.48926 11.6904 3.93262 15.0581C3.76562 16.0415 3.61719 17.0156 3.46875 17.999C2.3833 18.8525 1.43701 19.8545 0.722656 21.0142C0.444336 21.4595 1.14941 21.8677 1.42773 21.4224ZM6.09424 8.18359C6.38184 6.99609 6.68799 5.79932 7.08691 4.64893C7.29102 4.06445 7.625 2.73779 8.22803 2.40381C9.51758 1.68018 9.99072 6.71777 10.0928 7.45068C10.4268 9.81641 10.6309 12.2007 10.7607 14.5942C8.53418 15.1694 6.27051 16.0693 4.3501 17.3589C4.82324 14.2788 5.37988 11.208 6.09424 8.18359ZM21.6152 17.8691C21.8564 17.4053 21.1514 16.9971 20.9194 17.4609C20.1494 18.9639 19.2217 20.3833 18.0063 21.5708C17.4683 22.0903 16.791 22.7769 16.0767 23.0645C15.353 23.3428 14.1562 23.3149 13.8779 22.4521C13.7295 21.9976 13.6924 21.5151 13.6646 21.042C13.5439 19.0845 14.1377 17.1362 14.9448 15.3735C15.2324 14.7334 15.5479 14.0933 15.9375 13.5088C16.2065 13.1006 16.5312 12.6924 16.9116 12.3677C17.6538 11.7183 18.7578 12.1357 18.5352 13.2212C18.4331 13.7314 19.2124 13.9541 19.3237 13.4346C19.7783 11.2266 17.9971 10.3081 16.3364 11.7925C14.2583 13.6387 13.0708 17.1548 12.8574 19.8452C12.7275 21.5894 13.1079 25.1611 15.7241 24.1499C18.4053 23.1201 20.3721 20.3184 21.6152 17.8691ZM29.4082 17.8691C29.6494 17.4053 28.9443 16.9971 28.7124 17.4609C27.9424 18.9639 27.0146 20.3833 25.7993 21.5708C25.2612 22.0903 24.584 22.7769 23.8696 23.0645C23.146 23.3428 21.9492 23.3149 21.6709 22.4521C21.5225 21.9976 21.4854 21.5151 21.4575 21.042C21.3369 19.0845 21.9307 17.1362 22.7378 15.3735C23.0254 14.7334 23.3408 14.0933 23.7305 13.5088C23.9995 13.1006 24.3242 12.6924 24.7046 12.3677C25.4468 11.7183 26.5508 12.1357 26.3281 13.2212C26.2261 13.7314 27.0054 13.9541 27.1167 13.4346C27.5713 11.2266 25.79 10.3081 24.1294 11.7925C22.0513 13.6387 20.8638 17.1548 20.6504 19.8452C20.5205 21.5894 20.9009 25.1611 23.5171 24.1499C26.1982 23.1201 28.165 20.3184 29.4082 17.8691ZM34.9932 17.3403C34.3066 18.6577 33.2026 20.4111 31.5977 20.7266C30.0947 21.0142 29.5566 19.6318 29.4731 18.3794C29.4639 18.1475 29.4639 17.9155 29.4917 17.6929C29.5566 17.8599 29.7236 17.999 29.9556 17.9341C31.4492 17.5352 33.5088 15.9858 32.8965 14.1489C32.6553 13.4067 31.9595 13.2769 31.2451 13.5181C30.1133 13.9077 29.2876 15.3364 28.9258 16.4126C28.4341 17.8877 28.499 20.5967 30.1689 21.376C32.5625 22.4985 34.7705 19.5205 35.689 17.7485C35.9302 17.2847 35.2344 16.8672 34.9932 17.3403ZM29.9741 16.0044C30.2153 15.5405 31.8018 13.5459 32.145 14.5479C32.5811 15.8281 30.6421 16.9136 29.7422 17.1548C29.6587 17.1733 29.5938 17.2197 29.5474 17.2754C29.6309 16.8301 29.77 16.4033 29.9741 16.0044ZM41.543 18.1289C40.272 18.3516 38.8525 18.7969 37.5723 19.4834C37.3774 19.1494 37.1641 18.8247 36.9321 18.5278C35.856 17.1362 34.2695 15.7539 34.2139 13.8521C34.1768 12.5996 35.3271 10.0576 36.9321 11.4214C37.9526 12.2935 37.498 13.917 37.2104 15.0117C37.0713 15.522 37.8599 15.7354 37.999 15.2344C38.4351 13.5459 38.6763 10.1226 35.9951 10.2246C33.6943 10.3081 33.0635 13.4438 33.6479 15.1787C34.1396 16.6631 35.8931 18.231 36.9136 19.8638C35.8188 20.5596 34.8726 21.4409 34.2881 22.5078C33.1655 24.5581 35.0952 26.2466 37.0063 24.9385C38.7319 23.7603 38.6763 21.9048 37.9619 20.2534C39.1401 19.5947 40.4204 19.1494 41.7563 18.9175C42.2759 18.834 42.0532 18.0454 41.543 18.1289ZM37.1362 23.686C36.8765 24.0479 36.3569 24.5581 35.856 24.5952C34.1396 24.7251 34.8354 23.1665 35.2065 22.582C35.6611 21.8677 36.4126 21.2646 37.0991 20.7915C37.1826 20.7358 37.2568 20.6895 37.3403 20.6338C37.8042 21.6357 37.8784 22.6562 37.1362 23.686ZM56.73 16.0322C56.3774 18.0269 55.7188 20.1421 54.689 21.9048C54.29 22.582 53.1582 24.1221 52.249 23.3706C51.748 22.9624 51.7388 22.0161 51.7202 21.4224C51.646 19.3164 52.3232 17.2939 52.583 15.2251C52.6758 14.4922 52.9263 13.249 52.4717 12.5718C51.9893 11.876 51.312 12.3213 50.8667 12.8037C50.4121 13.2954 50.0874 13.8892 49.6235 14.3809C49.2339 14.7891 48.4546 15.3457 47.9258 14.9561C48.5381 14.5664 49.0483 14.0376 49.1968 13.3418C49.3545 12.5718 48.9463 11.9131 48.1113 11.9966C46.9238 12.1265 46.5156 13.5366 46.8311 14.6313C46.5249 14.7705 46.1724 14.8818 45.8291 14.9653C45.4116 13.6479 44.4097 12.4419 42.9995 13.3882C42.3965 13.7778 42.313 14.3438 42.5913 14.8447C41.5244 16.3477 40.875 19.6689 42.248 20.8843C44.3076 22.7119 45.9868 17.7207 46.0425 16.459C46.061 16.2363 46.0425 15.9951 46.0054 15.7446C46.2466 15.689 46.4785 15.6147 46.7012 15.5405C46.8589 15.4849 47.0166 15.4199 47.1836 15.3457C47.332 15.5312 47.5083 15.689 47.7217 15.791C48.77 16.292 49.7627 15.457 50.4121 14.7056C50.7739 14.2788 51.0522 13.7778 51.4326 13.3696C51.7666 13.0078 51.6738 12.8965 51.8594 13.2583C51.9429 13.4346 51.8872 13.8057 51.8779 14.0005C51.8408 15.9209 51.21 17.7578 50.9873 19.6504C50.8296 21.042 50.5884 24.3911 52.7407 24.3726C54.1323 24.354 55.0972 22.916 55.6538 21.8213C56.5352 20.0864 57.166 18.1567 57.5093 16.2456C57.5928 15.7446 56.8228 15.522 56.73 16.0322ZM43.7324 13.917C44.3911 13.6016 44.8179 14.3438 45.0405 15.0767C45.0127 15.0767 44.9756 15.0859 44.9478 15.0859C44.7715 15.0859 44.0571 14.9468 43.6211 14.7148C43.6118 14.5479 43.4634 14.3901 43.2871 14.3438C43.2964 14.2139 43.417 14.0747 43.7324 13.917ZM44.4561 19.0659C44.2983 19.3442 44.1221 19.6226 43.9087 19.8545C43.4912 20.2998 42.8604 20.1978 42.48 19.6597C42.2759 19.3721 42.3872 18.4443 42.415 18.1104C42.48 17.2383 42.647 16.2085 43.1572 15.4478C43.751 15.856 44.4932 15.9487 45.2261 15.8838C45.2354 15.9766 45.2446 16.0601 45.2446 16.125C45.2817 17.0991 44.9292 18.231 44.4561 19.0659ZM47.5547 14.2324C47.5083 13.9634 47.5176 13.6851 47.5918 13.4717C47.8145 12.8315 48.7886 12.5532 48.2598 13.5273C48.1021 13.8057 47.8423 14.0469 47.5547 14.2324ZM61.3779 17.563C60.9604 18.3608 60.4966 19.1401 59.9585 19.8638C59.6895 20.2349 59.1978 20.9956 58.7246 21.1348C57.6299 21.4688 57.9268 19.4185 57.9917 18.7319C58.0845 17.7856 58.8359 15.5962 57.936 14.8169C57.1846 14.1582 56.3218 15.1509 56.0156 15.7817C55.7837 16.2549 56.4888 16.6631 56.7114 16.1899C57.3794 15.6055 57.6299 15.6519 57.4629 16.3198C57.4443 16.561 57.4165 16.8022 57.3887 17.0435C57.333 17.5259 57.2588 18.0083 57.2031 18.4907C57.1104 19.2979 56.999 20.2349 57.2124 21.0513C57.3979 21.7285 57.8804 22.2017 58.6226 22.0532C60.2275 21.7378 61.3965 19.27 62.083 17.9712C62.3242 17.5166 61.6191 17.0991 61.3779 17.563ZM56.8506 12.8501C56.7393 12.8965 56.6279 12.9429 56.5166 12.9985C56.3125 13.082 56.2661 13.3789 56.3682 13.5552C56.4888 13.7593 56.7207 13.7871 56.9248 13.6943C57.0361 13.6479 57.1475 13.6016 57.2588 13.5459C57.4629 13.4624 57.5093 13.1655 57.4072 12.9893C57.2866 12.7852 57.0547 12.7573 56.8506 12.8501ZM66.397 17.73C66.1094 18.333 65.6177 18.6021 65.0703 18.6948C65.0981 18.5928 65.1167 18.5 65.1353 18.4072C65.3765 17.1084 65.0796 15.3179 63.9478 14.4829C61.7212 12.8501 58.7432 17.1084 61.1182 18.5464C61.1646 18.5835 61.2202 18.6113 61.2759 18.6484C61.0625 20.2163 61.4521 21.9883 62.7324 21.7563C63.6323 21.5986 64.356 20.5503 64.7734 19.5576C65.7568 19.502 66.6382 19.103 67.1021 18.1475C67.3247 17.6743 66.6289 17.2568 66.397 17.73ZM63.521 20.0493C63.3076 20.3276 62.7231 20.9771 62.2778 20.6338C62.0552 20.4668 62.0459 19.771 62.1294 19.0566C62.6768 19.27 63.2705 19.437 63.8735 19.5205C63.7715 19.6968 63.6509 19.873 63.521 20.0493ZM64.2168 18.7134C63.9014 18.6855 63.5767 18.6206 63.2705 18.5371C62.9551 18.4536 62.6025 18.3608 62.2778 18.2402C62.417 17.6279 62.6118 17.1548 62.7788 17.2197C63.2705 17.396 63.4839 16.6074 62.9922 16.4312C62.2964 16.1807 61.7583 16.8486 61.4707 17.7856C61.0439 17.4053 60.8955 16.8672 61.3872 16.0137C61.814 15.2529 62.6489 14.5479 63.6416 15.2993C63.957 15.5312 64.1426 16.125 64.2446 16.459C64.4673 17.2012 64.4487 17.9805 64.2168 18.7134ZM74.3105 18.1289C73.0396 18.3516 71.6201 18.7969 70.3398 19.4834C70.145 19.1494 69.9316 18.8247 69.6997 18.5278C68.6235 17.1362 67.0371 15.7539 66.9814 13.8521C66.9443 12.5996 68.0947 10.0576 69.6997 11.4214C70.7202 12.2935 70.2656 13.917 69.978 15.0117C69.8389 15.522 70.6274 15.7354 70.7666 15.2344C71.2026 13.5459 71.4438 10.1226 68.7627 10.2246C66.4619 10.3081 65.8311 13.4438 66.4155 15.1787C66.9072 16.6631 68.6606 18.231 69.6812 19.8638C68.5864 20.5596 67.6401 21.4409 67.0557 22.5078C65.9331 24.5581 67.8628 26.2466 69.7739 24.9385C71.4995 23.7603 71.4438 21.9048 70.7295 20.2534C71.9077 19.5947 73.188 19.1494 74.5239 18.9175C75.0435 18.834 74.8208 18.0454 74.3105 18.1289ZM69.9038 23.686C69.644 24.0479 69.1245 24.5581 68.6235 24.5952C66.9072 24.7251 67.603 23.1665 67.9741 22.582C68.4287 21.8677 69.1802 21.2646 69.8667 20.7915C69.9502 20.7358 70.0244 20.6895 70.1079 20.6338C70.5718 21.6357 70.646 22.6562 69.9038 23.686ZM14.131 47.1743C17.443 50.2822 21.8498 44.1963 23.2785 41.7842C23.5475 41.3296 22.8424 40.9214 22.5734 41.3667C21.5065 43.1851 20.1427 44.9941 18.4171 46.2373C17.3595 46.998 15.9401 47.5918 14.7897 46.6641C14.029 46.0425 13.7228 45.022 13.5465 44.085C12.7858 40.0864 13.5465 35.5312 14.7526 31.709C15.3835 29.7144 16.2091 27.7847 17.2575 25.9663C17.7677 25.0757 18.3337 24.2036 19.0295 23.4429C19.6881 22.7285 21.9518 20.6133 22.9538 22.1812C23.9372 23.7212 22.7311 26.6528 22.0353 28.1001C21.6642 28.8887 21.2282 29.6587 20.7087 30.3545C20.3932 30.772 21.0983 31.1802 21.4045 30.7627C23.0002 28.6475 24.3268 25.5674 23.9836 22.877C23.8166 21.5967 23.0187 20.7432 21.6642 20.8916C19.8737 21.0864 18.4357 22.7285 17.4709 24.1108C14.9567 27.6733 13.4816 32.0894 12.8507 36.3755C12.5353 38.5742 12.3962 40.8472 12.6003 43.0737C12.7209 44.5024 13.027 46.1353 14.131 47.1743ZM37.9319 43.6025C39.5647 43.6118 40.4646 42.0903 41.0954 40.8008C41.3274 40.3369 40.6316 39.9287 40.3996 40.4019C39.8615 41.4873 38.8503 43.4912 37.2082 42.6099C36.0671 41.9883 35.8166 40.2812 35.696 39.1309C35.6125 38.2959 35.9001 36.1714 34.9353 35.6982C34.1096 35.29 33.4787 36.3384 33.0984 36.9321C32.3654 38.0547 31.9387 39.3257 31.1408 40.3833C31.0945 38.7041 32.1335 37.0806 31.7068 35.4292C31.6696 35.29 31.5583 35.1787 31.4284 35.1416C30.1389 34.8262 29.2112 36.8022 28.4875 37.5815C28.2278 37.8599 27.9216 38.1289 27.5783 38.3423C27.7453 37.5723 27.8195 36.7837 27.7917 36.0137C27.7361 34.8262 27.1887 33.3511 25.7229 33.6108C23.5705 33.9912 23.0974 36.8765 24.1828 38.5186C24.1364 38.7412 24.0901 38.9731 24.0622 39.2051C23.9509 40.0122 23.719 41.1997 23.988 41.9883C24.4704 43.4077 25.6487 42.6099 26.2146 41.71C26.6506 41.0142 27.0124 40.2534 27.2815 39.4556C28.5061 38.9824 29.3874 37.7114 30.2317 36.7373C30.7141 36.1714 31.0759 35.7817 30.8625 36.9785C30.7605 37.5537 30.5935 38.1196 30.4729 38.6855C30.2873 39.6226 30.2224 40.4854 30.4729 41.4131C30.5471 41.71 30.9275 41.7935 31.1408 41.5894C32.3005 40.4761 32.7922 39.0103 33.5901 37.6558C33.9612 37.0435 34.3879 35.9023 34.7497 37.2104C34.8796 37.6465 34.8147 38.2031 34.8518 38.6484C34.926 39.5576 35.0188 40.4761 35.3342 41.3389C35.7517 42.4707 36.6145 43.6025 37.9319 43.6025ZM25.8064 40.9307C25.2868 41.8677 24.9065 41.7285 24.7395 41.5615C24.5075 41.3203 24.7673 40.0771 24.8137 39.6782C24.823 39.5205 24.8415 39.3721 24.8694 39.2236C25.1755 39.437 25.5373 39.5854 25.9641 39.6318C26.1032 39.6411 26.2424 39.6411 26.3816 39.6411C26.1867 40.1606 25.9919 40.6152 25.8064 40.9307ZM26.6692 38.7598C26.094 38.9082 25.5095 38.8247 25.0363 38.3423C25.2033 37.5908 25.4353 36.8579 25.7229 36.1343C25.9084 35.6519 25.1291 35.4385 24.9436 35.9209C24.758 36.3848 24.6096 36.8486 24.4704 37.3218C24.3684 36.8765 24.3962 36.4033 24.5261 35.9673C24.7116 35.3179 25.8806 33.3047 26.8454 35.1045C27.2815 35.9209 27.0588 37.4238 26.6692 38.7598ZM49.4773 37.5537C49.0413 38.1011 48.2342 39.2793 47.5198 39.4648C45.9334 39.873 45.887 36.5054 45.6458 35.689C45.553 35.3921 45.1819 35.29 44.9685 35.5034C43.8553 36.6167 43.2893 38.0547 42.343 39.2793C42.1297 39.5483 42.0183 39.9009 41.8142 39.7153C41.7122 39.6226 41.8885 38.3608 41.907 38.231C41.9627 37.498 42.0647 36.7837 42.1853 36.0601C42.3709 36.0508 42.5379 35.9209 42.51 35.6797C42.4822 35.3828 42.4451 35.0952 42.4173 34.7983C42.3709 34.3809 41.7122 34.2046 41.6101 34.687C41.3318 36.1064 41.1277 37.5259 41.0349 38.9731C40.9978 39.5112 40.8401 40.5688 41.6009 40.7451C42.2224 40.8936 42.7234 40.1328 43.0203 39.7339C43.7625 38.7598 44.2727 37.6465 45.0149 36.6816C45.2283 38.0918 45.3118 40.0586 46.7683 40.3833C48.0857 40.6802 49.3474 39.0103 50.0525 38.1289C50.3772 37.7207 49.8113 37.1455 49.4773 37.5537ZM64.6038 36.0322C64.2513 38.0269 63.5926 40.1421 62.5628 41.9048C62.1639 42.582 61.0321 44.1221 60.1229 43.3706C59.6219 42.9624 59.6126 42.0161 59.5941 41.4224C59.5199 39.3164 60.1971 37.2939 60.4569 35.2251C60.5496 34.4922 60.8001 33.249 60.3455 32.5718C59.8631 31.876 59.1859 32.3213 58.7406 32.8037C58.286 33.2954 57.9613 33.8892 57.4974 34.3809C57.1078 34.7891 56.3285 35.3457 55.7996 34.9561C56.412 34.5664 56.9222 34.0376 57.0706 33.3418C57.2284 32.5718 56.8202 31.9131 55.9852 31.9966C54.7977 32.1265 54.3895 33.5366 54.7049 34.6313C54.3988 34.7705 54.0462 34.8818 53.703 34.9653C53.2855 33.6479 52.2835 32.4419 50.8734 33.3882C50.2704 33.7778 50.1869 34.3438 50.4652 34.8447C49.3983 36.3477 48.7489 39.6689 50.1219 40.8843C52.1815 42.7119 53.8607 37.7207 53.9163 36.459C53.9349 36.2363 53.9163 35.9951 53.8792 35.7446C54.1204 35.689 54.3524 35.6147 54.575 35.5405C54.7328 35.4849 54.8905 35.4199 55.0575 35.3457C55.2059 35.5312 55.3822 35.689 55.5955 35.791C56.6439 36.292 57.6366 35.457 58.286 34.7056C58.6478 34.2788 58.9261 33.7778 59.3065 33.3696C59.6405 33.0078 59.5477 32.8965 59.7332 33.2583C59.8167 33.4346 59.7611 33.8057 59.7518 34.0005C59.7147 35.9209 59.0838 37.7578 58.8612 39.6504C58.7035 41.042 58.4622 44.3911 60.6146 44.3726C62.0062 44.354 62.971 42.916 63.5277 41.8213C64.409 40.0864 65.0399 38.1567 65.3831 36.2456C65.4666 35.7446 64.6966 35.522 64.6038 36.0322ZM51.6063 33.917C52.265 33.6016 52.6917 34.3438 52.9144 35.0767C52.8866 35.0767 52.8495 35.0859 52.8216 35.0859C52.6454 35.0859 51.931 34.9468 51.495 34.7148C51.4857 34.5479 51.3372 34.3901 51.161 34.3438C51.1703 34.2139 51.2909 34.0747 51.6063 33.917ZM52.3299 39.0659C52.1722 39.3442 51.9959 39.6226 51.7826 39.8545C51.3651 40.2998 50.7342 40.1978 50.3538 39.6597C50.1497 39.3721 50.2611 38.4443 50.2889 38.1104C50.3538 37.2383 50.5208 36.2085 51.0311 35.4478C51.6248 35.856 52.367 35.9487 53.0999 35.8838C53.1092 35.9766 53.1185 36.0601 53.1185 36.125C53.1556 37.0991 52.8031 38.231 52.3299 39.0659ZM55.4286 34.2324C55.3822 33.9634 55.3914 33.6851 55.4657 33.4717C55.6883 32.8315 56.6624 32.5532 56.1336 33.5273C55.9759 33.8057 55.7162 34.0469 55.4286 34.2324Z" fill="#486092"/>
</svg>
